<svg width="179" height="90" viewBox="0 0 179 90" fill="none" xmlns="http://www.w3.org/2000/svg">
<path d="M-21.9379 90H-15.3792L-34 69.5585V76.7585L-21.9379 90Z" fill="white"/>
<path d="M-34 57.2729L-4.1879 90H2.3708L-34 50.0729V57.2729Z" fill="white"/>
<path d="M-34 37.7873L13.5621 90H20.1208L-34 30.5873V37.7873Z" fill="white"/>
<path d="M-34 18.3018L31.3121 90H37.8708L-34 11.1018V18.3018Z" fill="white"/>
<path d="M-32.9216 3.09944e-06L49.0621 90H55.6208L-26.3629 3.09944e-06H-32.9216Z" fill="white"/>
<path d="M-15.1716 3.09944e-06L66.8121 90H73.3708L-8.61294 3.09944e-06H-15.1716Z" fill="white"/>
<path d="M2.57836 3.09944e-06L84.5621 90H91.1208L9.13706 3.09944e-06H2.57836Z" fill="white"/>
<path d="M20.3284 3.09944e-06L102.312 90H108.871L26.8871 3.09944e-06H20.3284Z" fill="white"/>
<path d="M38.0784 3.09944e-06L120.062 90H126.621L44.6371 3.09944e-06H38.0784Z" fill="white"/>
<path d="M55.8284 3.09944e-06L137.812 90H144.371L62.3871 3.09944e-06H55.8284Z" fill="white"/>
<path d="M73.5784 3.09944e-06L155.562 90H162.121L80.1371 3.09944e-06H73.5784Z" fill="white"/>
<path d="M91.3284 3.09944e-06L173.312 90H179V89.0441L97.8871 3.09944e-06H91.3284Z" fill="white"/>
<path d="M109.078 3.09944e-06L179 76.7585V69.5585L115.637 3.09944e-06H109.078Z" fill="white"/>
<path d="M126.828 3.09944e-06L179 57.2729V50.0729L133.387 3.09944e-06H126.828Z" fill="white"/>
<path d="M144.578 3.09944e-06L179 37.7873V30.5873L151.137 3.09944e-06H144.578Z" fill="white"/>
<path d="M162.328 3.09944e-06L179 18.3018V11.1018L168.887 3.09944e-06H162.328Z" fill="white"/>
</svg>
