<svg width="138" height="144" viewBox="0 0 138 144" fill="none" xmlns="http://www.w3.org/2000/svg">
<path d="M128.465 23.291L132.321 24.3811L132.049 25.3434L133.278 25.6908L133.328 26.9671L134.327 26.9285L134.482 30.9331L133.483 30.9717L133.638 34.9764L134.637 34.9377L134.792 38.9423L133.793 38.981L133.948 42.9856L134.947 42.947L135.102 46.9516L134.103 46.9903L134.258 50.9949L135.257 50.9562L135.412 54.9609L134.413 54.9995L134.568 59.0042L135.567 58.9655L135.722 62.9701L134.723 63.0088L134.878 67.0134L135.877 66.9748L136.032 70.9794L135.033 71.0181L135.188 75.0227L136.187 74.984L136.342 78.9886L135.343 79.0273L135.498 83.0319L136.497 82.9933L136.652 86.9979L135.652 87.0366L135.807 91.0412L136.807 91.0025L136.962 95.0071L135.962 95.0458L136.117 99.0504L137.117 99.0118L137.272 103.016L136.272 103.055L136.427 107.06L137.427 107.021L137.582 111.026L136.582 111.064L136.632 112.341L135.433 112.782L135.779 113.72L132.018 115.105L131.672 114.167L127.912 115.552L128.257 116.49L124.497 117.875L124.151 116.937L120.39 118.322L120.736 119.26L116.975 120.645L116.629 119.706L112.869 121.091L113.214 122.03L109.454 123.415L109.108 122.476L105.347 123.861L105.693 124.8L101.932 126.184L101.587 125.246L97.8258 126.631L98.1713 127.569L94.4106 128.954L94.065 128.016L90.3043 129.401L90.6499 130.339L86.8891 131.724L86.5436 130.786L82.7828 132.17L83.1284 133.109L79.3676 134.494L79.0221 133.555L75.2613 134.94L75.6069 135.879L71.8462 137.264L71.5006 136.325L67.7399 137.71L68.0854 138.648L64.3247 140.033L63.9791 139.095L60.2184 140.48L60.5639 141.418L56.8032 142.803L56.4577 141.865L55.2591 142.306L54.4689 141.303L53.6832 141.921L51.204 138.772L51.9897 138.154L49.5104 135.005L48.7247 135.624L46.2455 132.475L47.0312 131.856L44.5519 128.708L43.7663 129.326L41.287 126.178L42.0727 125.559L39.5935 122.41L38.8078 123.029L36.3285 119.88L37.1142 119.262L34.635 116.113L33.8493 116.731L31.3701 113.583L32.1557 112.964L29.6765 109.815L28.8908 110.434L26.4116 107.285L27.1973 106.667L24.718 103.518L23.9323 104.137L21.4531 100.988L22.2388 100.369L19.7595 97.2205L18.9739 97.8391L16.4946 94.6904L17.2803 94.0718L14.8011 90.9231L14.0154 91.5417L11.5361 88.393L12.3218 87.7743L9.84258 84.6256L9.0569 85.2442L6.57766 82.0955L7.36334 81.4769L4.8841 78.3282L4.09842 78.9468L1.61918 75.7981L2.40486 75.1795L1.6147 74.1759L2.32494 73.1143L1.49379 72.5583L3.72227 69.2274L4.55342 69.7834L6.7819 66.4525L5.95077 65.8965L8.17925 62.5656L9.01039 63.1216L11.2389 59.7907L10.4077 59.2346L12.6362 55.9037L13.4674 56.4598L15.6958 53.1289L14.8647 52.5728L17.0932 49.2419L17.9243 49.798L20.1528 46.4671L19.3217 45.911L21.5501 42.5801L22.3813 43.1362L24.6098 39.8053L23.7786 39.2492L26.0071 35.9183L26.8383 36.4744L29.0667 33.1435L28.2356 32.5874L30.4641 29.2565L31.2952 29.8126L33.5237 26.4816L32.6926 25.9256L34.921 22.5947L35.7522 23.1507L37.9807 19.8198L37.1495 19.2638L39.378 15.9329L40.2092 16.4889L42.4376 13.158L41.6065 12.602L43.835 9.27106L44.6661 9.82712L46.8946 6.49621L46.0635 5.94015L48.2919 2.60925L49.1231 3.16531L49.8333 2.10371L51.0624 2.45114L51.3344 1.48885L55.191 2.57895L54.9189 3.54125L58.7755 4.63136L59.0475 3.66906L62.904 4.75917L62.632 5.72146L66.4885 6.81157L66.7605 5.84928L70.617 6.93938L70.345 7.90168L74.2016 8.99179L74.4736 8.02949L78.3301 9.1196L78.0581 10.0819L81.9146 11.172L82.1866 10.2097L86.0431 11.2998L85.7711 12.2621L89.6276 13.3522L89.8996 12.3899L93.7562 13.48L93.4841 14.4423L97.3407 15.5324L97.6127 14.5701L101.469 15.6602L101.197 16.6225L105.054 17.7126L105.326 16.7503L109.182 17.8404L108.91 18.8027L112.767 19.8928L113.039 18.9306L116.895 20.0207L116.623 20.983L120.48 22.0731L120.752 21.1108L124.608 22.2009L124.336 23.1632L128.193 24.2533L128.465 23.291Z" stroke="white" stroke-width="2" stroke-dasharray="4 4"/>
</svg>
